<?xml version="1.0" encoding="UTF-8" standalone="no"?>
<!-- Created with Inkscape (http://www.inkscape.org/) -->

<svg
   xmlns:dc="http://purl.org/dc/elements/1.1/"
   xmlns:cc="http://creativecommons.org/ns#"
   xmlns:rdf="http://www.w3.org/1999/02/22-rdf-syntax-ns#"
   xmlns:svg="http://www.w3.org/2000/svg"
   xmlns="http://www.w3.org/2000/svg"
   xmlns:sodipodi="http://sodipodi.sourceforge.net/DTD/sodipodi-0.dtd"
   xmlns:inkscape="http://www.inkscape.org/namespaces/inkscape"
   inkscape:export-ydpi="89.972054"
   inkscape:export-xdpi="89.972054"
   inkscape:export-filename="/home/matthew/repo/wnl_svn/bricktronics/laser_cut_mount/proto2.png"
   sodipodi:docname="bricktronics_6aa_battery_holder_mounting_plate_v6.svg"
   inkscape:version="0.91 r13725"
   version="1.1"
   id="svg4750"
   height="228.43311"
   width="455.20486">
  <sodipodi:namedview
     id="base"
     pagecolor="#ffffff"
     bordercolor="#666666"
     borderopacity="1.0"
     inkscape:pageopacity="1"
     inkscape:pageshadow="2"
     inkscape:zoom="2.2868824"
     inkscape:cx="227.60243"
     inkscape:cy="114.21655"
     inkscape:document-units="mm"
     inkscape:current-layer="layer1"
     showgrid="false"
     inkscape:window-width="1600"
     inkscape:window-height="851"
     inkscape:window-x="0"
     inkscape:window-y="25"
     inkscape:window-maximized="1"
     fit-margin-top="0"
     fit-margin-left="0"
     fit-margin-right="0"
     fit-margin-bottom="0"
     inkscape:snap-global="true"
     inkscape:snap-smooth-nodes="true"
     inkscape:object-nodes="true"
     inkscape:snap-bbox="false"
     inkscape:bbox-paths="false"
     inkscape:bbox-nodes="true"
     units="in"
     showguides="true"
     inkscape:guide-bbox="true"
     inkscape:snap-page="false"
     inkscape:snap-nodes="true">
    <sodipodi:guide
       orientation="0,1"
       position="909.19184,-860.20795"
       id="guide5236" />
    <sodipodi:guide
       orientation="1,0"
       position="917.69577,-851.70402"
       id="guide5238" />
    <sodipodi:guide
       orientation="0,1"
       position="909.19184,-1087.641"
       id="guide6008" />
    <sodipodi:guide
       orientation="0,1"
       position="909.19184,-1315.0741"
       id="guide6227" />
    <sodipodi:guide
       orientation="1,0"
       position="454.70486,219.42922"
       id="guide7718" />
    <sodipodi:guide
       orientation="0,1"
       position="900.40576,0.50001812"
       id="guide8132" />
    <sodipodi:guide
       orientation="0,1"
       position="900.40576,-454.36618"
       id="guide8520" />
    <sodipodi:guide
       position="270.39715,176.77364"
       orientation="0,1"
       id="guide4199" />
    <sodipodi:guide
       position="270.39715,51.659507"
       orientation="0,1"
       id="guide4201" />
    <sodipodi:guide
       position="142.54534,127.58407"
       orientation="1,0"
       id="guide4205" />
    <sodipodi:guide
       position="312.65954,127.58407"
       orientation="1,0"
       id="guide4207" />
  </sodipodi:namedview>
  <defs
     id="defs4752" />
  <metadata
     id="metadata4755">
    <rdf:RDF>
      <cc:Work
         rdf:about="">
        <dc:format>image/svg+xml</dc:format>
        <dc:type
           rdf:resource="http://purl.org/dc/dcmitype/StillImage" />
        <dc:title></dc:title>
      </cc:Work>
    </rdf:RDF>
  </metadata>
  <g
     transform="translate(-467.09174,1842.8704)"
     id="layer1"
     inkscape:groupmode="layer"
     inkscape:label="Layer 1">
    <path
       style="fill:none;stroke:#000000;stroke-width:1;stroke-miterlimit:4;stroke-opacity:1;stroke-dasharray:none"
       d="m 518.94604,-1629.4413 c 0,4.6966 -3.80734,8.5039 -8.50394,8.5039 -4.69659,0 -8.50394,-3.8073 -8.50394,-8.5039 0,-4.6966 3.80735,-8.5039 8.50394,-8.5039 4.6966,0 8.50394,3.8073 8.50394,8.5039 z"
       id="path6030"
       inkscape:connector-curvature="0" />
    <path
       style="fill:none;stroke:#000000;stroke-width:1;stroke-miterlimit:4;stroke-opacity:1;stroke-dasharray:none"
       d="m 547.29254,-1629.4413 c 0,4.6966 -3.80734,8.5039 -8.50394,8.5039 -4.69659,0 -8.50394,-3.8073 -8.50394,-8.5039 0,-4.6966 3.80735,-8.5039 8.50394,-8.5039 4.6966,0 8.50394,3.8073 8.50394,8.5039 z"
       id="path6032"
       inkscape:connector-curvature="0" />
    <path
       style="fill:none;stroke:#000000;stroke-width:1;stroke-miterlimit:4;stroke-opacity:1;stroke-dasharray:none"
       d="m 575.63894,-1629.4413 c 0,4.6966 -3.80734,8.5039 -8.50394,8.5039 -4.69659,0 -8.50394,-3.8073 -8.50394,-8.5039 0,-4.6966 3.80735,-8.5039 8.50394,-8.5039 4.6966,0 8.50394,3.8073 8.50394,8.5039 z"
       id="path6034"
       inkscape:connector-curvature="0" />
    <path
       style="fill:none;stroke:#000000;stroke-width:1;stroke-miterlimit:4;stroke-opacity:1;stroke-dasharray:none"
       d="m 603.98544,-1629.4413 c 0,4.6966 -3.80734,8.5039 -8.50394,8.5039 -4.69659,0 -8.50394,-3.8073 -8.50394,-8.5039 0,-4.6966 3.80735,-8.5039 8.50394,-8.5039 4.6966,0 8.50394,3.8073 8.50394,8.5039 z"
       id="path6036"
       inkscape:connector-curvature="0" />
    <path
       style="fill:none;stroke:#000000;stroke-width:1;stroke-miterlimit:4;stroke-opacity:1;stroke-dasharray:none"
       d="m 632.33194,-1629.4413 c 0,4.6966 -3.80734,8.5039 -8.50394,8.5039 -4.69659,0 -8.50394,-3.8073 -8.50394,-8.5039 0,-4.6966 3.80735,-8.5039 8.50394,-8.5039 4.6966,0 8.50394,3.8073 8.50394,8.5039 z"
       id="path6038"
       inkscape:connector-curvature="0" />
    <path
       style="fill:none;stroke:#000000;stroke-width:1;stroke-miterlimit:4;stroke-opacity:1;stroke-dasharray:none"
       d="m 660.67834,-1629.4413 c 0,4.6966 -3.80734,8.5039 -8.50394,8.5039 -4.69659,0 -8.50394,-3.8073 -8.50394,-8.5039 0,-4.6966 3.80735,-8.5039 8.50394,-8.5039 4.6966,0 8.50394,3.8073 8.50394,8.5039 z"
       id="path6040"
       inkscape:connector-curvature="0" />
    <path
       style="fill:none;stroke:#000000;stroke-width:1;stroke-miterlimit:4;stroke-opacity:1;stroke-dasharray:none"
       d="m 518.94604,-1827.8665 c 0,4.6966 -3.80734,8.5039 -8.50394,8.5039 -4.69659,0 -8.50394,-3.8073 -8.50394,-8.5039 0,-4.6966 3.80735,-8.5039 8.50394,-8.5039 4.6966,0 8.50394,3.8073 8.50394,8.5039 z"
       id="path6042"
       inkscape:connector-curvature="0" />
    <path
       style="fill:none;stroke:#000000;stroke-width:1;stroke-miterlimit:4;stroke-opacity:1;stroke-dasharray:none"
       d="m 547.29254,-1827.8665 c 0,4.6966 -3.80734,8.5039 -8.50394,8.5039 -4.69659,0 -8.50394,-3.8073 -8.50394,-8.5039 0,-4.6966 3.80735,-8.5039 8.50394,-8.5039 4.6966,0 8.50394,3.8073 8.50394,8.5039 z"
       id="path6044"
       inkscape:connector-curvature="0" />
    <path
       style="fill:none;stroke:#000000;stroke-width:1;stroke-miterlimit:4;stroke-opacity:1;stroke-dasharray:none"
       d="m 575.63904,-1827.8665 c 0,4.6966 -3.80734,8.5039 -8.50394,8.5039 -4.69659,0 -8.50394,-3.8073 -8.50394,-8.5039 0,-4.6966 3.80735,-8.5039 8.50394,-8.5039 4.6966,0 8.50394,3.8073 8.50394,8.5039 z"
       id="path6046"
       inkscape:connector-curvature="0" />
    <path
       style="fill:none;stroke:#000000;stroke-width:1;stroke-miterlimit:4;stroke-opacity:1;stroke-dasharray:none"
       d="m 603.98544,-1827.8665 c 0,4.6966 -3.80734,8.5039 -8.50394,8.5039 -4.69659,0 -8.50394,-3.8073 -8.50394,-8.5039 0,-4.6966 3.80735,-8.5039 8.50394,-8.5039 4.6966,0 8.50394,3.8073 8.50394,8.5039 z"
       id="path6048"
       inkscape:connector-curvature="0" />
    <path
       style="fill:none;stroke:#000000;stroke-width:1;stroke-miterlimit:4;stroke-opacity:1;stroke-dasharray:none"
       d="m 632.33194,-1827.8665 c 0,4.6966 -3.80734,8.5039 -8.50394,8.5039 -4.69659,0 -8.50394,-3.8073 -8.50394,-8.5039 0,-4.6966 3.80735,-8.5039 8.50394,-8.5039 4.6966,0 8.50394,3.8073 8.50394,8.5039 z"
       id="path6050"
       inkscape:connector-curvature="0" />
    <path
       style="fill:none;stroke:#000000;stroke-width:1;stroke-miterlimit:4;stroke-opacity:1;stroke-dasharray:none"
       d="m 660.67834,-1827.8665 c 0,4.6966 -3.80734,8.5039 -8.50394,8.5039 -4.69659,0 -8.50394,-3.8073 -8.50394,-8.5039 0,-4.6966 3.80735,-8.5039 8.50394,-8.5039 4.6966,0 8.50394,3.8073 8.50394,8.5039 z"
       id="path6052"
       inkscape:connector-curvature="0" />
    <path
       style="fill:none;stroke:#000000;stroke-width:1;stroke-miterlimit:4;stroke-opacity:1;stroke-dasharray:none"
       d="m 689.02484,-1827.8665 c 0,4.6966 -3.80734,8.5039 -8.50394,8.5039 -4.69659,0 -8.50394,-3.8073 -8.50394,-8.5039 0,-4.6966 3.80735,-8.5039 8.50394,-8.5039 4.6966,0 8.50394,3.8073 8.50394,8.5039 z"
       id="path6054"
       inkscape:connector-curvature="0" />
    <path
       style="fill:none;stroke:#000000;stroke-width:1;stroke-miterlimit:4;stroke-opacity:1;stroke-dasharray:none"
       d="m 717.37124,-1827.8665 c 0,4.6966 -3.80734,8.5039 -8.50394,8.5039 -4.69659,0 -8.50394,-3.8073 -8.50394,-8.5039 0,-4.6966 3.80735,-8.5039 8.50394,-8.5039 4.6966,0 8.50394,3.8073 8.50394,8.5039 z"
       id="path6056"
       inkscape:connector-curvature="0" />
    <path
       style="fill:none;stroke:#000000;stroke-width:1;stroke-miterlimit:4;stroke-opacity:1;stroke-dasharray:none"
       d="m 745.71774,-1827.8665 c 0,4.6966 -3.80734,8.5039 -8.50394,8.5039 -4.69659,0 -8.50394,-3.8073 -8.50394,-8.5039 0,-4.6966 3.80735,-8.5039 8.50394,-8.5039 4.6966,0 8.50394,3.8073 8.50394,8.5039 z"
       id="path6058"
       inkscape:connector-curvature="0" />
    <path
       style="fill:none;stroke:#000000;stroke-width:1;stroke-miterlimit:4;stroke-opacity:1;stroke-dasharray:none"
       d="m 774.06414,-1827.8665 c 0,4.6966 -3.80734,8.5039 -8.50394,8.5039 -4.69659,0 -8.50394,-3.8073 -8.50394,-8.5039 0,-4.6966 3.80735,-8.5039 8.50394,-8.5039 4.6966,0 8.50394,3.8073 8.50394,8.5039 z"
       id="path6060"
       inkscape:connector-curvature="0" />
    <path
       style="fill:none;stroke:#000000;stroke-width:1;stroke-miterlimit:4;stroke-opacity:1;stroke-dasharray:none"
       d="m 802.41064,-1827.8665 c 0,4.6966 -3.80734,8.5039 -8.50394,8.5039 -4.69659,0 -8.50394,-3.8073 -8.50394,-8.5039 0,-4.6966 3.80735,-8.5039 8.50394,-8.5039 4.6966,0 8.50394,3.8073 8.50394,8.5039 z"
       id="path6062"
       inkscape:connector-curvature="0" />
    <path
       style="fill:none;stroke:#000000;stroke-width:1;stroke-miterlimit:4;stroke-opacity:1;stroke-dasharray:none"
       d="m 830.75714,-1827.8665 c 0,4.6966 -3.80734,8.5039 -8.50394,8.5039 -4.69659,0 -8.50394,-3.8073 -8.50394,-8.5039 0,-4.6966 3.80735,-8.5039 8.50394,-8.5039 4.6966,0 8.50394,3.8073 8.50394,8.5039 z"
       id="path6064"
       inkscape:connector-curvature="0" />
    <path
       style="fill:none;stroke:#000000;stroke-width:1;stroke-miterlimit:4;stroke-opacity:1;stroke-dasharray:none"
       d="m 745.71774,-1629.4413 c 0,4.6966 -3.80734,8.5039 -8.50394,8.5039 -4.69659,0 -8.50394,-3.8073 -8.50394,-8.5039 0,-4.6966 3.80735,-8.5039 8.50394,-8.5039 4.6966,0 8.50394,3.8073 8.50394,8.5039 z"
       id="path6066"
       inkscape:connector-curvature="0" />
    <path
       style="fill:none;stroke:#000000;stroke-width:1;stroke-miterlimit:4;stroke-opacity:1;stroke-dasharray:none"
       d="m 774.06424,-1629.4413 c 0,4.6966 -3.80734,8.5039 -8.50394,8.5039 -4.69659,0 -8.50394,-3.8073 -8.50394,-8.5039 0,-4.6966 3.80735,-8.5039 8.50394,-8.5039 4.6966,0 8.50394,3.8073 8.50394,8.5039 z"
       id="path6068"
       inkscape:connector-curvature="0" />
    <path
       style="fill:none;stroke:#000000;stroke-width:1;stroke-miterlimit:4;stroke-opacity:1;stroke-dasharray:none"
       d="m 802.41064,-1629.4413 c 0,4.6966 -3.80734,8.5039 -8.50394,8.5039 -4.69659,0 -8.50394,-3.8073 -8.50394,-8.5039 0,-4.6966 3.80735,-8.5039 8.50394,-8.5039 4.6966,0 8.50394,3.8073 8.50394,8.5039 z"
       id="path6070"
       inkscape:connector-curvature="0" />
    <path
       style="fill:none;stroke:#000000;stroke-width:1;stroke-miterlimit:4;stroke-opacity:1;stroke-dasharray:none"
       d="m 830.75714,-1629.4413 c 0,4.6966 -3.80734,8.5039 -8.50394,8.5039 -4.69659,0 -8.50394,-3.8073 -8.50394,-8.5039 0,-4.6966 3.80735,-8.5039 8.50394,-8.5039 4.6966,0 8.50394,3.8073 8.50394,8.5039 z"
       id="path6072"
       inkscape:connector-curvature="0" />
    <path
       style="fill:none;stroke:#000000;stroke-width:1;stroke-miterlimit:4;stroke-opacity:1;stroke-dasharray:none"
       d="m 717.37124,-1629.4413 c 0,4.6966 -3.80734,8.5039 -8.50394,8.5039 -4.69659,0 -8.50394,-3.8073 -8.50394,-8.5039 0,-4.6966 3.80735,-8.5039 8.50394,-8.5039 4.6966,0 8.50394,3.8073 8.50394,8.5039 z"
       id="path6076"
       inkscape:connector-curvature="0" />
    <path
       style="fill:none;stroke:#000000;stroke-width:1;stroke-miterlimit:4;stroke-opacity:1;stroke-dasharray:none"
       d="m 680.52088,-1620.9373 c -4.6966,0 -8.50394,-3.8074 -8.50394,-8.504 0,-4.6966 3.80734,-8.5039 8.50394,-8.5039 4.69659,0 8.50394,3.8073 8.50393,8.5039 0,4.6966 -3.80734,8.504 -8.50393,8.504 z"
       id="path6078"
       inkscape:connector-curvature="0" />
    <path
       style="fill:none;stroke:#000000;stroke-width:1;stroke-miterlimit:4;stroke-opacity:1;stroke-dasharray:none"
       d="m 915.79664,-1657.7877 c 0,4.6966 -3.80734,8.5039 -8.50394,8.5039 -4.69659,0 -8.50394,-3.8073 -8.50394,-8.5039 0,-4.6966 3.80735,-8.5039 8.50394,-8.5039 4.6966,0 8.50394,3.8073 8.50394,8.5039 z"
       id="path6080"
       inkscape:connector-curvature="0" />
    <path
       style="fill:none;stroke:#000000;stroke-width:1;stroke-miterlimit:4;stroke-opacity:1;stroke-dasharray:none"
       d="m 907.29268,-1620.9373 c -4.6966,0 -8.50394,-3.8074 -8.50394,-8.504 0,-4.6966 3.80734,-8.5039 8.50394,-8.5039 4.69659,0 8.50394,3.8073 8.50393,8.5039 0,4.6966 -3.80734,8.504 -8.50393,8.504 z"
       id="path6082"
       inkscape:connector-curvature="0" />
    <path
       style="fill:none;stroke:#000000;stroke-width:1;stroke-miterlimit:4;stroke-opacity:1;stroke-dasharray:none"
       d="m 850.59968,-1819.3625 c -4.6966,0 -8.50394,-3.8074 -8.50394,-8.504 0,-4.6966 3.80734,-8.5039 8.50394,-8.5039 4.69659,0 8.50394,3.8073 8.50393,8.5039 0,4.6966 -3.80734,8.504 -8.50393,8.504 z"
       id="path6084"
       inkscape:connector-curvature="0" />
    <path
       style="fill:none;stroke:#000000;stroke-width:1;stroke-miterlimit:4;stroke-opacity:1;stroke-dasharray:none"
       d="m 907.29268,-1791.016 c -4.6966,0 -8.50394,-3.8074 -8.50394,-8.504 0,-4.6966 3.80734,-8.5039 8.50394,-8.5039 4.69659,0 8.50394,3.8073 8.50393,8.5039 0,4.6966 -3.80734,8.504 -8.50393,8.504 z"
       id="path6086"
       inkscape:connector-curvature="0" />
    <path
       style="fill:none;stroke:#000000;stroke-width:1;stroke-miterlimit:4;stroke-opacity:1;stroke-dasharray:none"
       d="m 907.29268,-1762.6696 c -4.6966,0 -8.50394,-3.8074 -8.50394,-8.504 0,-4.6966 3.80734,-8.5039 8.50394,-8.5039 4.69659,0 8.50394,3.8073 8.50393,8.5039 0,4.6966 -3.80734,8.504 -8.50393,8.504 z"
       id="path6088"
       inkscape:connector-curvature="0" />
    <path
       style="fill:none;stroke:#000000;stroke-width:1;stroke-miterlimit:4;stroke-opacity:1;stroke-dasharray:none"
       d="m 907.29268,-1734.3231 c -4.6966,0 -8.50394,-3.8074 -8.50394,-8.504 0,-4.6966 3.80734,-8.5039 8.50394,-8.5039 4.69659,0 8.50394,3.8073 8.50393,8.5039 0,4.6966 -3.80734,8.504 -8.50393,8.504 z"
       id="path6090"
       inkscape:connector-curvature="0" />
    <path
       style="fill:none;stroke:#000000;stroke-width:1;stroke-miterlimit:4;stroke-opacity:1;stroke-dasharray:none"
       d="m 907.29268,-1705.9766 c -4.6966,0 -8.50394,-3.8074 -8.50394,-8.504 0,-4.6966 3.80734,-8.5039 8.50394,-8.5039 4.69659,0 8.50394,3.8073 8.50393,8.5039 0,4.6966 -3.80734,8.504 -8.50393,8.504 z"
       id="path6092"
       inkscape:connector-curvature="0" />
    <path
       style="fill:none;stroke:#000000;stroke-width:1;stroke-miterlimit:4;stroke-opacity:1;stroke-dasharray:none"
       d="m 907.29268,-1677.6302 c -4.6966,0 -8.50394,-3.8074 -8.50394,-8.504 0,-4.6966 3.80734,-8.5039 8.50394,-8.5039 4.69659,0 8.50394,3.8073 8.50393,8.5039 0,4.6966 -3.80734,8.504 -8.50393,8.504 z"
       id="path6094"
       inkscape:connector-curvature="0" />
    <path
       style="fill:none;stroke:#000000;stroke-width:1;stroke-miterlimit:4;stroke-opacity:1;stroke-dasharray:none"
       d="m 490.59964,-1657.7877 c 0,4.6966 -3.80734,8.5039 -8.50394,8.5039 -4.69659,0 -8.50394,-3.8073 -8.50394,-8.5039 0,-4.6966 3.80735,-8.5039 8.50394,-8.5039 4.6966,0 8.50394,3.8073 8.50394,8.5039 z"
       id="path6096"
       inkscape:connector-curvature="0" />
    <path
       style="fill:none;stroke:#000000;stroke-width:1;stroke-miterlimit:4;stroke-opacity:1;stroke-dasharray:none"
       d="m 482.09568,-1620.9373 c -4.6966,0 -8.50394,-3.8074 -8.50394,-8.504 0,-4.6966 3.80734,-8.5039 8.50394,-8.5039 4.69659,0 8.50394,3.8073 8.50393,8.5039 0,4.6966 -3.80734,8.504 -8.50393,8.504 z"
       id="path6100"
       inkscape:connector-curvature="0" />
    <path
       style="fill:none;stroke:#000000;stroke-width:1;stroke-miterlimit:4;stroke-opacity:1;stroke-dasharray:none"
       d="m 482.09568,-1819.3625 c -4.6966,0 -8.50394,-3.8074 -8.50394,-8.504 0,-4.6966 3.80734,-8.5039 8.50394,-8.5039 4.69659,0 8.50394,3.8073 8.50393,8.5039 0,4.6966 -3.80734,8.504 -8.50393,8.504 z"
       id="path6102"
       inkscape:connector-curvature="0" />
    <path
       style="fill:none;stroke:#000000;stroke-width:1;stroke-miterlimit:4;stroke-opacity:1;stroke-dasharray:none"
       d="m 482.09568,-1791.016 c -4.6966,0 -8.50394,-3.8074 -8.50394,-8.504 0,-4.6966 3.80734,-8.5039 8.50394,-8.5039 4.69659,0 8.50394,3.8073 8.50393,8.5039 0,4.6966 -3.80734,8.504 -8.50393,8.504 z"
       id="path6104"
       inkscape:connector-curvature="0" />
    <path
       style="fill:none;stroke:#000000;stroke-width:1;stroke-miterlimit:4;stroke-opacity:1;stroke-dasharray:none"
       d="m 482.09568,-1762.6696 c -4.6966,0 -8.50394,-3.8074 -8.50394,-8.504 0,-4.6966 3.80734,-8.5039 8.50394,-8.5039 4.69659,0 8.50394,3.8073 8.50393,8.5039 0,4.6966 -3.80734,8.504 -8.50393,8.504 z"
       id="path6106"
       inkscape:connector-curvature="0" />
    <path
       style="fill:none;stroke:#000000;stroke-width:1;stroke-miterlimit:4;stroke-opacity:1;stroke-dasharray:none"
       d="m 482.09568,-1734.3231 c -4.6966,0 -8.50394,-3.8074 -8.50394,-8.504 0,-4.6966 3.80734,-8.5039 8.50394,-8.5039 4.69659,0 8.50394,3.8073 8.50393,8.5039 0,4.6966 -3.80734,8.504 -8.50393,8.504 z"
       id="path6108"
       inkscape:connector-curvature="0" />
    <path
       style="fill:none;stroke:#000000;stroke-width:1;stroke-miterlimit:4;stroke-opacity:1;stroke-dasharray:none"
       d="m 482.09568,-1705.9766 c -4.6966,0 -8.50394,-3.8074 -8.50394,-8.504 0,-4.6966 3.80734,-8.5039 8.50394,-8.5039 4.69659,0 8.50394,3.8073 8.50393,8.5039 0,4.6966 -3.80734,8.504 -8.50393,8.504 z"
       id="path6110"
       inkscape:connector-curvature="0" />
    <path
       style="fill:none;stroke:#000000;stroke-width:1;stroke-miterlimit:4;stroke-opacity:1;stroke-dasharray:none"
       d="m 482.09568,-1677.6302 c -4.6966,0 -8.50394,-3.8074 -8.50394,-8.504 0,-4.6966 3.80734,-8.5039 8.50394,-8.5039 4.69659,0 8.50394,3.8073 8.50393,8.5039 0,4.6966 -3.80734,8.504 -8.50393,8.504 z"
       id="path6112"
       inkscape:connector-curvature="0" />
    <path
       style="fill:none;stroke:#000000;stroke-width:1;stroke-miterlimit:4;stroke-opacity:1;stroke-dasharray:none"
       d="m 887.45014,-1827.8665 c 0,4.6966 -3.80734,8.5039 -8.50394,8.5039 -4.69659,0 -8.50394,-3.8073 -8.50394,-8.5039 0,-4.6966 3.80735,-8.5039 8.50394,-8.5039 4.6966,0 8.50394,3.8073 8.50394,8.5039 z"
       id="path6262"
       inkscape:connector-curvature="0" />
    <path
       style="fill:none;stroke:#000000;stroke-width:1;stroke-miterlimit:4;stroke-opacity:1;stroke-dasharray:none"
       d="m 907.29268,-1819.3625 c -4.6966,0 -8.50394,-3.8074 -8.50394,-8.504 0,-4.6966 3.80734,-8.5039 8.50394,-8.5039 4.69659,0 8.50394,3.8073 8.50393,8.5039 0,4.6966 -3.80734,8.504 -8.50393,8.504 z"
       id="path6264"
       inkscape:connector-curvature="0" />
    <path
       style="fill:none;stroke:#000000;stroke-width:1;stroke-miterlimit:4;stroke-opacity:1;stroke-dasharray:none"
       d="m 859.10364,-1629.4413 c 0,4.6966 -3.80734,8.5039 -8.50394,8.5039 -4.69659,0 -8.50394,-3.8073 -8.50394,-8.5039 0,-4.6966 3.80735,-8.5039 8.50394,-8.5039 4.6966,0 8.50394,3.8073 8.50394,8.5039 z"
       id="path6269"
       inkscape:connector-curvature="0" />
    <path
       style="fill:none;stroke:#000000;stroke-width:1;stroke-miterlimit:4;stroke-opacity:1;stroke-dasharray:none"
       d="m 887.45014,-1629.4413 c 0,4.6966 -3.80734,8.5039 -8.50394,8.5039 -4.69659,0 -8.50394,-3.8073 -8.50394,-8.5039 0,-4.6966 3.80735,-8.5039 8.50394,-8.5039 4.6966,0 8.50394,3.8073 8.50394,8.5039 z"
       id="path6271"
       inkscape:connector-curvature="0" />
    <path
       style="fill:none;stroke:#00ff00;stroke-width:1;stroke-linecap:round;stroke-linejoin:round;stroke-miterlimit:4;stroke-opacity:1;stroke-dasharray:none;stroke-dashoffset:0"
       d="m 921.7966,-1623.4413 0,-210.4252 -8.50393,-8.5039 -437.197,0 -8.50393,8.5039 0,210.4252 8.50393,8.504 437.197,0 z"
       id="rect10175"
       inkscape:connector-curvature="0"
       sodipodi:nodetypes="ccccccccc" />
    <path
       style="fill:none;stroke:#000000;stroke-width:1;stroke-linecap:round;stroke-linejoin:round;stroke-miterlimit:4;stroke-opacity:1;stroke-dasharray:none;stroke-dashoffset:0"
       d="m 700.30632,-1788.7007 c 0,3.0947 -2.50877,5.6035 -5.60346,5.6035 -3.0947,0 -5.60345,-2.5088 -5.60345,-5.6035 0,-3.0947 2.50875,-5.6034 5.60345,-5.6034 3.09469,0 5.60346,2.5087 5.60346,5.6034 z"
       id="path8320-9"
       inkscape:connector-curvature="0" />
    <path
       style="fill:none;stroke:#000000;stroke-width:1;stroke-linecap:round;stroke-linejoin:round;stroke-miterlimit:4;stroke-opacity:1;stroke-dasharray:none;stroke-dashoffset:0"
       d="m 700.30632,-1668.2283 c 0,3.0947 -2.50877,5.6035 -5.60346,5.6035 -3.0947,0 -5.60345,-2.5088 -5.60345,-5.6035 0,-3.0947 2.50875,-5.6034 5.60345,-5.6034 3.09469,0 5.60346,2.5087 5.60346,5.6034 z"
       id="path11191"
       inkscape:connector-curvature="0" />
    <path
       style="font-size:medium;font-style:normal;font-variant:normal;font-weight:normal;font-stretch:normal;text-indent:0;text-align:start;text-decoration:none;line-height:normal;letter-spacing:normal;word-spacing:normal;text-transform:none;direction:ltr;block-progression:tb;writing-mode:lr-tb;text-anchor:start;baseline-shift:baseline;color:#000000;fill:none;stroke:#ff0000;stroke-width:1;stroke-miterlimit:4;stroke-opacity:1;stroke-dasharray:none;marker:none;visibility:visible;display:inline;overflow:visible;enable-background:accumulate;font-family:Sans;-inkscape-font-specification:Sans"
       d="m 502.99161,-1815.4705 -5.53125,5.5312 0,162.9375 5.53125,5.5313 383.40628,0 5.5625,-5.5313 0,-162.9375 -5.5625,-5.5312 z m 0,3 383.40628,0 2.5625,2.5312 0,162.9375 -2.5625,2.5313 -383.40628,0 -2.53125,-2.5313 0,-162.9375 z"
       id="rect3092"
       inkscape:connector-curvature="0"
       sodipodi:nodetypes="cccccccccccccccccc" />
    <path
       id="path4389-1-3"
       d="m 511.69236,-1703.0733 c -2.985,0 -5.4048,2.4198 -5.4048,5.4048 l 0,43.2381 c 0,2.985 2.4198,5.4048 5.4048,5.4048 l 21.619,0 c 2.985,0 5.4048,-2.4198 5.4048,-5.4048 l 0,-4.2741 0,-1.1306 0,-16.2143 c 0,-2.985 -2.4198,-5.4048 -5.4048,-5.4048 l -16.2142,0 0,-16.2143 c 0,-2.985 -2.4198,-5.4048 -5.4048,-5.4048 z m 0,1.3512 c 2.2387,0 4.0536,1.8149 4.0536,4.0536 0,2.2387 -1.8149,4.0536 -4.0536,4.0536 -2.2387,0 -4.0536,-1.8149 -4.0536,-4.0536 0,-2.2387 1.8149,-4.0536 4.0536,-4.0536 z m 0,10.8095 c 2.2387,0 4.0536,1.8149 4.0536,4.0536 0,2.2387 -1.8149,4.0536 -4.0536,4.0536 -2.2387,0 -4.0536,-1.8149 -4.0536,-4.0536 0,-2.2387 1.8149,-4.0536 4.0536,-4.0536 z m 0,10.8096 c 2.2387,0 4.0536,1.8148 4.0536,4.0536 0,2.2387 -1.8149,4.0536 -4.0536,4.0536 -2.2387,0 -4.0536,-1.8149 -4.0536,-4.0536 0,-2.2388 1.8149,-4.0536 4.0536,-4.0536 z m 10.8095,0 c 2.2388,0 4.0536,1.8148 4.0536,4.0536 0,2.2387 -1.8148,4.0536 -4.0536,4.0536 -2.2387,0 -4.0535,-1.8149 -4.0535,-4.0536 0,-2.2388 1.8148,-4.0536 4.0535,-4.0536 z m 10.8095,0 c 2.2388,0 4.0536,1.8148 4.0536,4.0536 0,2.2387 -1.8148,4.0536 -4.0536,4.0536 -2.2387,0 -4.0535,-1.8149 -4.0535,-4.0536 0,-2.2388 1.8148,-4.0536 4.0535,-4.0536 z m -16.2142,9.4583 10.8095,0 0,10.8096 -10.8095,0 z m -5.4048,1.3512 c 2.2387,0 4.0536,1.8149 4.0536,4.0536 0,2.2387 -1.8149,4.0536 -4.0536,4.0536 -2.2387,0 -4.0536,-1.8149 -4.0536,-4.0536 0,-2.2387 1.8149,-4.0536 4.0536,-4.0536 z m 21.619,0 c 2.2388,0 4.0536,1.8149 4.0536,4.0536 0,2.2387 -1.8148,4.0536 -4.0536,4.0536 -2.2387,0 -4.0535,-1.8149 -4.0535,-4.0536 0,-2.2387 1.8148,-4.0536 4.0535,-4.0536 z m -21.619,10.8096 c 2.2387,0 4.0536,1.8148 4.0536,4.0535 0,2.2387 -1.8149,4.0536 -4.0536,4.0536 -2.2387,0 -4.0536,-1.8149 -4.0536,-4.0536 0,-2.2387 1.8149,-4.0535 4.0536,-4.0535 z m 10.8095,0 c 2.2388,0 4.0536,1.8148 4.0536,4.0535 0,2.2387 -1.8148,4.0536 -4.0536,4.0536 -2.2387,0 -4.0535,-1.8149 -4.0535,-4.0536 0,-2.2387 1.8148,-4.0535 4.0535,-4.0535 z m 10.8095,0 c 2.2388,0 4.0536,1.8148 4.0536,4.0535 0,2.2387 -1.8148,4.0536 -4.0536,4.0536 -2.2387,0 -4.0535,-1.8149 -4.0535,-4.0536 0,-2.2387 1.8148,-4.0535 4.0535,-4.0535 z"
       style="fill:none;stroke:#ff0000;stroke-width:1;stroke-miterlimit:4;stroke-opacity:1;stroke-dasharray:none"
       inkscape:connector-curvature="0"
       sodipodi:nodetypes="ssssssccsscssssssssssssssssssssssssssscccccsssssssssssssssssssssssss" />
    <path
       inkscape:connector-curvature="0"
       id="path4214"
       style="font-style:normal;font-weight:normal;font-size:medium;line-height:125%;font-family:sans-serif;text-align:center;letter-spacing:0px;word-spacing:0px;text-anchor:middle;fill:none;fill-opacity:1;stroke:#ff0000;stroke-width:1;stroke-linecap:butt;stroke-linejoin:miter;stroke-miterlimit:4;stroke-dasharray:none;stroke-opacity:1"
       d="m 547.96383,-1650.762 -5.60069,-14.6698 2.07324,0 4.64758,12.351 4.65741,-12.351 2.06341,0 -5.59086,14.6698 -2.25009,0 z" />
    <path
       inkscape:connector-curvature="0"
       id="path4216"
       style="font-style:normal;font-weight:normal;font-size:medium;line-height:125%;font-family:sans-serif;text-align:center;letter-spacing:0px;word-spacing:0px;text-anchor:middle;fill:none;fill-opacity:1;stroke:#ff0000;stroke-width:1;stroke-linecap:butt;stroke-linejoin:miter;stroke-miterlimit:4;stroke-dasharray:none;stroke-opacity:1"
       d="m 562.60421,-1658.8879 q -1.33631,0 -2.12237,0.9138 -0.77623,0.9138 -0.77623,2.5056 0,1.5819 0.77623,2.5056 0.78606,0.9138 2.12237,0.9138 1.3363,0 2.11253,-0.9138 0.78606,-0.9237 0.78606,-2.5056 0,-1.5918 -0.78606,-2.5056 -0.77623,-0.9138 -2.11253,-0.9138 z m 3.94013,-6.2197 0,1.808 q -0.74676,-0.3538 -1.51317,-0.5404 -0.75658,-0.1867 -1.50334,-0.1867 -1.96515,0 -3.00668,1.3264 -1.03171,1.3265 -1.1791,4.0089 0.57972,-0.8548 1.45422,-1.3068 0.87449,-0.4618 1.92585,-0.4618 2.21079,0 3.48814,1.3461 1.28717,1.3363 1.28717,3.6454 0,2.2599 -1.3363,3.6257 -1.3363,1.3658 -3.55692,1.3658 -2.54488,0 -3.891,-1.9455 -1.34613,-1.9553 -1.34613,-5.6597 0,-3.4783 1.65072,-5.5417 1.65073,-2.0732 4.43142,-2.0732 0.74676,0 1.50334,0.1474 0.76641,0.1474 1.59178,0.4421 z" />
    <path
       inkscape:connector-curvature="0"
       id="path4195"
       d="m 785.96511,-1791.211 c 0,3.4318 -2.78203,6.2139 -6.2138,6.2139 -3.43179,0 -6.2138,-2.7821 -6.2138,-6.2139 0,-3.4317 2.78201,-6.2137 6.2138,-6.2137 3.43177,0 6.2138,2.782 6.2138,6.2137 z"
       style="fill:none;stroke:#000000;stroke-width:1;stroke-linecap:round;stroke-linejoin:round;stroke-miterlimit:4;stroke-dasharray:none;stroke-dashoffset:0;stroke-opacity:1" />
    <path
       style="fill:none;stroke:#000000;stroke-width:1;stroke-linecap:round;stroke-linejoin:round;stroke-miterlimit:4;stroke-dasharray:none;stroke-dashoffset:0;stroke-opacity:1"
       d="m 785.96511,-1666.0968 c 0,3.4317 -2.78203,6.2138 -6.2138,6.2138 -3.43179,0 -6.2138,-2.7821 -6.2138,-6.2138 0,-3.4318 2.78201,-6.2138 6.2138,-6.2138 3.43177,0 6.2138,2.782 6.2138,6.2138 z"
       id="path4203"
       inkscape:connector-curvature="0" />
    <path
       inkscape:connector-curvature="0"
       id="path4209"
       d="m 615.85091,-1666.0968 c 0,3.4317 -2.78204,6.2138 -6.21381,6.2138 -3.43178,0 -6.2138,-2.7821 -6.2138,-6.2138 0,-3.4318 2.78202,-6.2138 6.2138,-6.2138 3.43177,0 6.21381,2.782 6.21381,6.2138 z"
       style="fill:none;stroke:#000000;stroke-width:1;stroke-linecap:round;stroke-linejoin:round;stroke-miterlimit:4;stroke-dasharray:none;stroke-dashoffset:0;stroke-opacity:1" />
    <path
       style="fill:none;stroke:#000000;stroke-width:1;stroke-linecap:round;stroke-linejoin:round;stroke-miterlimit:4;stroke-dasharray:none;stroke-dashoffset:0;stroke-opacity:1"
       d="m 615.85091,-1791.211 c 0,3.4318 -2.78204,6.2139 -6.21381,6.2139 -3.43178,0 -6.2138,-2.7821 -6.2138,-6.2139 0,-3.4317 2.78202,-6.2137 6.2138,-6.2137 3.43177,0 6.21381,2.782 6.21381,6.2137 z"
       id="path4211"
       inkscape:connector-curvature="0" />
  </g>
</svg>
