<?xml version="1.0" encoding="UTF-8" standalone="no"?>
<!-- Created with Inkscape (http://www.inkscape.org/) -->

<svg
   xmlns:dc="http://purl.org/dc/elements/1.1/"
   xmlns:cc="http://creativecommons.org/ns#"
   xmlns:rdf="http://www.w3.org/1999/02/22-rdf-syntax-ns#"
   xmlns:svg="http://www.w3.org/2000/svg"
   xmlns="http://www.w3.org/2000/svg"
   xmlns:sodipodi="http://sodipodi.sourceforge.net/DTD/sodipodi-0.dtd"
   xmlns:inkscape="http://www.inkscape.org/namespaces/inkscape"
   inkscape:export-ydpi="89.972054"
   inkscape:export-xdpi="89.972054"
   inkscape:export-filename="/home/matthew/repo/wnl_svn/bricktronics/laser_cut_mount/proto2.png"
   sodipodi:docname="battery_v5.svg"
   inkscape:version="0.48.3.1 r9886"
   version="1.1"
   id="svg4750"
   height="228.43311"
   width="455.20486">
  <sodipodi:namedview
     id="base"
     pagecolor="#ffffff"
     bordercolor="#666666"
     borderopacity="1.0"
     inkscape:pageopacity="1"
     inkscape:pageshadow="2"
     inkscape:zoom="2.3549836"
     inkscape:cx="160.58726"
     inkscape:cy="106.83253"
     inkscape:document-units="px"
     inkscape:current-layer="layer1"
     showgrid="false"
     inkscape:window-width="1535"
     inkscape:window-height="876"
     inkscape:window-x="65"
     inkscape:window-y="24"
     inkscape:window-maximized="1"
     fit-margin-top="0"
     fit-margin-left="0"
     fit-margin-right="0"
     fit-margin-bottom="0"
     inkscape:snap-global="true"
     inkscape:snap-smooth-nodes="true"
     inkscape:object-nodes="true"
     inkscape:snap-bbox="false"
     inkscape:bbox-paths="false"
     inkscape:bbox-nodes="true"
     units="in"
     showguides="false"
     inkscape:guide-bbox="true"
     inkscape:snap-page="false"
     inkscape:snap-nodes="true">
    <sodipodi:guide
       orientation="0,1"
       position="909.19184,-860.20795"
       id="guide5236" />
    <sodipodi:guide
       orientation="1,0"
       position="917.69577,-851.70402"
       id="guide5238" />
    <sodipodi:guide
       orientation="0,1"
       position="909.19184,-1087.641"
       id="guide6008" />
    <sodipodi:guide
       orientation="0,1"
       position="909.19184,-1315.0741"
       id="guide6227" />
    <sodipodi:guide
       orientation="1,0"
       position="454.70486,219.42922"
       id="guide7718" />
    <sodipodi:guide
       orientation="0,1"
       position="900.40576,0.50001812"
       id="guide8132" />
    <sodipodi:guide
       orientation="0,1"
       position="900.40576,-454.36618"
       id="guide8520" />
  </sodipodi:namedview>
  <defs
     id="defs4752" />
  <metadata
     id="metadata4755">
    <rdf:RDF>
      <cc:Work
         rdf:about="">
        <dc:format>image/svg+xml</dc:format>
        <dc:type
           rdf:resource="http://purl.org/dc/dcmitype/StillImage" />
        <dc:title />
      </cc:Work>
    </rdf:RDF>
  </metadata>
  <g
     transform="translate(-467.09174,1842.8704)"
     id="layer1"
     inkscape:groupmode="layer"
     inkscape:label="Layer 1">
    <path
       style="fill:none;stroke:#000000;stroke-width:1;stroke-miterlimit:4;stroke-opacity:1;stroke-dasharray:none"
       d="m 518.94604,-1629.4413 c 0,4.6966 -3.80734,8.5039 -8.50394,8.5039 -4.69659,0 -8.50394,-3.8073 -8.50394,-8.5039 0,-4.6966 3.80735,-8.5039 8.50394,-8.5039 4.6966,0 8.50394,3.8073 8.50394,8.5039 z"
       id="path6030"
       inkscape:connector-curvature="0" />
    <path
       style="fill:none;stroke:#000000;stroke-width:1;stroke-miterlimit:4;stroke-opacity:1;stroke-dasharray:none"
       d="m 547.29254,-1629.4413 c 0,4.6966 -3.80734,8.5039 -8.50394,8.5039 -4.69659,0 -8.50394,-3.8073 -8.50394,-8.5039 0,-4.6966 3.80735,-8.5039 8.50394,-8.5039 4.6966,0 8.50394,3.8073 8.50394,8.5039 z"
       id="path6032"
       inkscape:connector-curvature="0" />
    <path
       style="fill:none;stroke:#000000;stroke-width:1;stroke-miterlimit:4;stroke-opacity:1;stroke-dasharray:none"
       d="m 575.63894,-1629.4413 c 0,4.6966 -3.80734,8.5039 -8.50394,8.5039 -4.69659,0 -8.50394,-3.8073 -8.50394,-8.5039 0,-4.6966 3.80735,-8.5039 8.50394,-8.5039 4.6966,0 8.50394,3.8073 8.50394,8.5039 z"
       id="path6034"
       inkscape:connector-curvature="0" />
    <path
       style="fill:none;stroke:#000000;stroke-width:1;stroke-miterlimit:4;stroke-opacity:1;stroke-dasharray:none"
       d="m 603.98544,-1629.4413 c 0,4.6966 -3.80734,8.5039 -8.50394,8.5039 -4.69659,0 -8.50394,-3.8073 -8.50394,-8.5039 0,-4.6966 3.80735,-8.5039 8.50394,-8.5039 4.6966,0 8.50394,3.8073 8.50394,8.5039 z"
       id="path6036"
       inkscape:connector-curvature="0" />
    <path
       style="fill:none;stroke:#000000;stroke-width:1;stroke-miterlimit:4;stroke-opacity:1;stroke-dasharray:none"
       d="m 632.33194,-1629.4413 c 0,4.6966 -3.80734,8.5039 -8.50394,8.5039 -4.69659,0 -8.50394,-3.8073 -8.50394,-8.5039 0,-4.6966 3.80735,-8.5039 8.50394,-8.5039 4.6966,0 8.50394,3.8073 8.50394,8.5039 z"
       id="path6038"
       inkscape:connector-curvature="0" />
    <path
       style="fill:none;stroke:#000000;stroke-width:1;stroke-miterlimit:4;stroke-opacity:1;stroke-dasharray:none"
       d="m 660.67834,-1629.4413 c 0,4.6966 -3.80734,8.5039 -8.50394,8.5039 -4.69659,0 -8.50394,-3.8073 -8.50394,-8.5039 0,-4.6966 3.80735,-8.5039 8.50394,-8.5039 4.6966,0 8.50394,3.8073 8.50394,8.5039 z"
       id="path6040"
       inkscape:connector-curvature="0" />
    <path
       style="fill:none;stroke:#000000;stroke-width:1;stroke-miterlimit:4;stroke-opacity:1;stroke-dasharray:none"
       d="m 518.94604,-1827.8665 c 0,4.6966 -3.80734,8.5039 -8.50394,8.5039 -4.69659,0 -8.50394,-3.8073 -8.50394,-8.5039 0,-4.6966 3.80735,-8.5039 8.50394,-8.5039 4.6966,0 8.50394,3.8073 8.50394,8.5039 z"
       id="path6042"
       inkscape:connector-curvature="0" />
    <path
       style="fill:none;stroke:#000000;stroke-width:1;stroke-miterlimit:4;stroke-opacity:1;stroke-dasharray:none"
       d="m 547.29254,-1827.8665 c 0,4.6966 -3.80734,8.5039 -8.50394,8.5039 -4.69659,0 -8.50394,-3.8073 -8.50394,-8.5039 0,-4.6966 3.80735,-8.5039 8.50394,-8.5039 4.6966,0 8.50394,3.8073 8.50394,8.5039 z"
       id="path6044"
       inkscape:connector-curvature="0" />
    <path
       style="fill:none;stroke:#000000;stroke-width:1;stroke-miterlimit:4;stroke-opacity:1;stroke-dasharray:none"
       d="m 575.63904,-1827.8665 c 0,4.6966 -3.80734,8.5039 -8.50394,8.5039 -4.69659,0 -8.50394,-3.8073 -8.50394,-8.5039 0,-4.6966 3.80735,-8.5039 8.50394,-8.5039 4.6966,0 8.50394,3.8073 8.50394,8.5039 z"
       id="path6046"
       inkscape:connector-curvature="0" />
    <path
       style="fill:none;stroke:#000000;stroke-width:1;stroke-miterlimit:4;stroke-opacity:1;stroke-dasharray:none"
       d="m 603.98544,-1827.8665 c 0,4.6966 -3.80734,8.5039 -8.50394,8.5039 -4.69659,0 -8.50394,-3.8073 -8.50394,-8.5039 0,-4.6966 3.80735,-8.5039 8.50394,-8.5039 4.6966,0 8.50394,3.8073 8.50394,8.5039 z"
       id="path6048"
       inkscape:connector-curvature="0" />
    <path
       style="fill:none;stroke:#000000;stroke-width:1;stroke-miterlimit:4;stroke-opacity:1;stroke-dasharray:none"
       d="m 632.33194,-1827.8665 c 0,4.6966 -3.80734,8.5039 -8.50394,8.5039 -4.69659,0 -8.50394,-3.8073 -8.50394,-8.5039 0,-4.6966 3.80735,-8.5039 8.50394,-8.5039 4.6966,0 8.50394,3.8073 8.50394,8.5039 z"
       id="path6050"
       inkscape:connector-curvature="0" />
    <path
       style="fill:none;stroke:#000000;stroke-width:1;stroke-miterlimit:4;stroke-opacity:1;stroke-dasharray:none"
       d="m 660.67834,-1827.8665 c 0,4.6966 -3.80734,8.5039 -8.50394,8.5039 -4.69659,0 -8.50394,-3.8073 -8.50394,-8.5039 0,-4.6966 3.80735,-8.5039 8.50394,-8.5039 4.6966,0 8.50394,3.8073 8.50394,8.5039 z"
       id="path6052"
       inkscape:connector-curvature="0" />
    <path
       style="fill:none;stroke:#000000;stroke-width:1;stroke-miterlimit:4;stroke-opacity:1;stroke-dasharray:none"
       d="m 689.02484,-1827.8665 c 0,4.6966 -3.80734,8.5039 -8.50394,8.5039 -4.69659,0 -8.50394,-3.8073 -8.50394,-8.5039 0,-4.6966 3.80735,-8.5039 8.50394,-8.5039 4.6966,0 8.50394,3.8073 8.50394,8.5039 z"
       id="path6054"
       inkscape:connector-curvature="0" />
    <path
       style="fill:none;stroke:#000000;stroke-width:1;stroke-miterlimit:4;stroke-opacity:1;stroke-dasharray:none"
       d="m 717.37124,-1827.8665 c 0,4.6966 -3.80734,8.5039 -8.50394,8.5039 -4.69659,0 -8.50394,-3.8073 -8.50394,-8.5039 0,-4.6966 3.80735,-8.5039 8.50394,-8.5039 4.6966,0 8.50394,3.8073 8.50394,8.5039 z"
       id="path6056"
       inkscape:connector-curvature="0" />
    <path
       style="fill:none;stroke:#000000;stroke-width:1;stroke-miterlimit:4;stroke-opacity:1;stroke-dasharray:none"
       d="m 745.71774,-1827.8665 c 0,4.6966 -3.80734,8.5039 -8.50394,8.5039 -4.69659,0 -8.50394,-3.8073 -8.50394,-8.5039 0,-4.6966 3.80735,-8.5039 8.50394,-8.5039 4.6966,0 8.50394,3.8073 8.50394,8.5039 z"
       id="path6058"
       inkscape:connector-curvature="0" />
    <path
       style="fill:none;stroke:#000000;stroke-width:1;stroke-miterlimit:4;stroke-opacity:1;stroke-dasharray:none"
       d="m 774.06414,-1827.8665 c 0,4.6966 -3.80734,8.5039 -8.50394,8.5039 -4.69659,0 -8.50394,-3.8073 -8.50394,-8.5039 0,-4.6966 3.80735,-8.5039 8.50394,-8.5039 4.6966,0 8.50394,3.8073 8.50394,8.5039 z"
       id="path6060"
       inkscape:connector-curvature="0" />
    <path
       style="fill:none;stroke:#000000;stroke-width:1;stroke-miterlimit:4;stroke-opacity:1;stroke-dasharray:none"
       d="m 802.41064,-1827.8665 c 0,4.6966 -3.80734,8.5039 -8.50394,8.5039 -4.69659,0 -8.50394,-3.8073 -8.50394,-8.5039 0,-4.6966 3.80735,-8.5039 8.50394,-8.5039 4.6966,0 8.50394,3.8073 8.50394,8.5039 z"
       id="path6062"
       inkscape:connector-curvature="0" />
    <path
       style="fill:none;stroke:#000000;stroke-width:1;stroke-miterlimit:4;stroke-opacity:1;stroke-dasharray:none"
       d="m 830.75714,-1827.8665 c 0,4.6966 -3.80734,8.5039 -8.50394,8.5039 -4.69659,0 -8.50394,-3.8073 -8.50394,-8.5039 0,-4.6966 3.80735,-8.5039 8.50394,-8.5039 4.6966,0 8.50394,3.8073 8.50394,8.5039 z"
       id="path6064"
       inkscape:connector-curvature="0" />
    <path
       style="fill:none;stroke:#000000;stroke-width:1;stroke-miterlimit:4;stroke-opacity:1;stroke-dasharray:none"
       d="m 745.71774,-1629.4413 c 0,4.6966 -3.80734,8.5039 -8.50394,8.5039 -4.69659,0 -8.50394,-3.8073 -8.50394,-8.5039 0,-4.6966 3.80735,-8.5039 8.50394,-8.5039 4.6966,0 8.50394,3.8073 8.50394,8.5039 z"
       id="path6066"
       inkscape:connector-curvature="0" />
    <path
       style="fill:none;stroke:#000000;stroke-width:1;stroke-miterlimit:4;stroke-opacity:1;stroke-dasharray:none"
       d="m 774.06424,-1629.4413 c 0,4.6966 -3.80734,8.5039 -8.50394,8.5039 -4.69659,0 -8.50394,-3.8073 -8.50394,-8.5039 0,-4.6966 3.80735,-8.5039 8.50394,-8.5039 4.6966,0 8.50394,3.8073 8.50394,8.5039 z"
       id="path6068"
       inkscape:connector-curvature="0" />
    <path
       style="fill:none;stroke:#000000;stroke-width:1;stroke-miterlimit:4;stroke-opacity:1;stroke-dasharray:none"
       d="m 802.41064,-1629.4413 c 0,4.6966 -3.80734,8.5039 -8.50394,8.5039 -4.69659,0 -8.50394,-3.8073 -8.50394,-8.5039 0,-4.6966 3.80735,-8.5039 8.50394,-8.5039 4.6966,0 8.50394,3.8073 8.50394,8.5039 z"
       id="path6070"
       inkscape:connector-curvature="0" />
    <path
       style="fill:none;stroke:#000000;stroke-width:1;stroke-miterlimit:4;stroke-opacity:1;stroke-dasharray:none"
       d="m 830.75714,-1629.4413 c 0,4.6966 -3.80734,8.5039 -8.50394,8.5039 -4.69659,0 -8.50394,-3.8073 -8.50394,-8.5039 0,-4.6966 3.80735,-8.5039 8.50394,-8.5039 4.6966,0 8.50394,3.8073 8.50394,8.5039 z"
       id="path6072"
       inkscape:connector-curvature="0" />
    <path
       style="fill:none;stroke:#000000;stroke-width:1;stroke-miterlimit:4;stroke-opacity:1;stroke-dasharray:none"
       d="m 717.37124,-1629.4413 c 0,4.6966 -3.80734,8.5039 -8.50394,8.5039 -4.69659,0 -8.50394,-3.8073 -8.50394,-8.5039 0,-4.6966 3.80735,-8.5039 8.50394,-8.5039 4.6966,0 8.50394,3.8073 8.50394,8.5039 z"
       id="path6076"
       inkscape:connector-curvature="0" />
    <path
       style="fill:none;stroke:#000000;stroke-width:1;stroke-miterlimit:4;stroke-opacity:1;stroke-dasharray:none"
       d="m 680.52088,-1620.9373 c -4.6966,0 -8.50394,-3.8074 -8.50394,-8.504 0,-4.6966 3.80734,-8.5039 8.50394,-8.5039 4.69659,0 8.50394,3.8073 8.50393,8.5039 0,4.6966 -3.80734,8.504 -8.50393,8.504 z"
       id="path6078"
       inkscape:connector-curvature="0" />
    <path
       style="fill:none;stroke:#000000;stroke-width:1;stroke-miterlimit:4;stroke-opacity:1;stroke-dasharray:none"
       d="m 915.79664,-1657.7877 c 0,4.6966 -3.80734,8.5039 -8.50394,8.5039 -4.69659,0 -8.50394,-3.8073 -8.50394,-8.5039 0,-4.6966 3.80735,-8.5039 8.50394,-8.5039 4.6966,0 8.50394,3.8073 8.50394,8.5039 z"
       id="path6080"
       inkscape:connector-curvature="0" />
    <path
       style="fill:none;stroke:#000000;stroke-width:1;stroke-miterlimit:4;stroke-opacity:1;stroke-dasharray:none"
       d="m 907.29268,-1620.9373 c -4.6966,0 -8.50394,-3.8074 -8.50394,-8.504 0,-4.6966 3.80734,-8.5039 8.50394,-8.5039 4.69659,0 8.50394,3.8073 8.50393,8.5039 0,4.6966 -3.80734,8.504 -8.50393,8.504 z"
       id="path6082"
       inkscape:connector-curvature="0" />
    <path
       style="fill:none;stroke:#000000;stroke-width:1;stroke-miterlimit:4;stroke-opacity:1;stroke-dasharray:none"
       d="m 850.59968,-1819.3625 c -4.6966,0 -8.50394,-3.8074 -8.50394,-8.504 0,-4.6966 3.80734,-8.5039 8.50394,-8.5039 4.69659,0 8.50394,3.8073 8.50393,8.5039 0,4.6966 -3.80734,8.504 -8.50393,8.504 z"
       id="path6084"
       inkscape:connector-curvature="0" />
    <path
       style="fill:none;stroke:#000000;stroke-width:1;stroke-miterlimit:4;stroke-opacity:1;stroke-dasharray:none"
       d="m 907.29268,-1791.016 c -4.6966,0 -8.50394,-3.8074 -8.50394,-8.504 0,-4.6966 3.80734,-8.5039 8.50394,-8.5039 4.69659,0 8.50394,3.8073 8.50393,8.5039 0,4.6966 -3.80734,8.504 -8.50393,8.504 z"
       id="path6086"
       inkscape:connector-curvature="0" />
    <path
       style="fill:none;stroke:#000000;stroke-width:1;stroke-miterlimit:4;stroke-opacity:1;stroke-dasharray:none"
       d="m 907.29268,-1762.6696 c -4.6966,0 -8.50394,-3.8074 -8.50394,-8.504 0,-4.6966 3.80734,-8.5039 8.50394,-8.5039 4.69659,0 8.50394,3.8073 8.50393,8.5039 0,4.6966 -3.80734,8.504 -8.50393,8.504 z"
       id="path6088"
       inkscape:connector-curvature="0" />
    <path
       style="fill:none;stroke:#000000;stroke-width:1;stroke-miterlimit:4;stroke-opacity:1;stroke-dasharray:none"
       d="m 907.29268,-1734.3231 c -4.6966,0 -8.50394,-3.8074 -8.50394,-8.504 0,-4.6966 3.80734,-8.5039 8.50394,-8.5039 4.69659,0 8.50394,3.8073 8.50393,8.5039 0,4.6966 -3.80734,8.504 -8.50393,8.504 z"
       id="path6090"
       inkscape:connector-curvature="0" />
    <path
       style="fill:none;stroke:#000000;stroke-width:1;stroke-miterlimit:4;stroke-opacity:1;stroke-dasharray:none"
       d="m 907.29268,-1705.9766 c -4.6966,0 -8.50394,-3.8074 -8.50394,-8.504 0,-4.6966 3.80734,-8.5039 8.50394,-8.5039 4.69659,0 8.50394,3.8073 8.50393,8.5039 0,4.6966 -3.80734,8.504 -8.50393,8.504 z"
       id="path6092"
       inkscape:connector-curvature="0" />
    <path
       style="fill:none;stroke:#000000;stroke-width:1;stroke-miterlimit:4;stroke-opacity:1;stroke-dasharray:none"
       d="m 907.29268,-1677.6302 c -4.6966,0 -8.50394,-3.8074 -8.50394,-8.504 0,-4.6966 3.80734,-8.5039 8.50394,-8.5039 4.69659,0 8.50394,3.8073 8.50393,8.5039 0,4.6966 -3.80734,8.504 -8.50393,8.504 z"
       id="path6094"
       inkscape:connector-curvature="0" />
    <path
       style="fill:none;stroke:#000000;stroke-width:1;stroke-miterlimit:4;stroke-opacity:1;stroke-dasharray:none"
       d="m 490.59964,-1657.7877 c 0,4.6966 -3.80734,8.5039 -8.50394,8.5039 -4.69659,0 -8.50394,-3.8073 -8.50394,-8.5039 0,-4.6966 3.80735,-8.5039 8.50394,-8.5039 4.6966,0 8.50394,3.8073 8.50394,8.5039 z"
       id="path6096"
       inkscape:connector-curvature="0" />
    <path
       style="fill:none;stroke:#000000;stroke-width:1;stroke-miterlimit:4;stroke-opacity:1;stroke-dasharray:none"
       d="m 482.09568,-1620.9373 c -4.6966,0 -8.50394,-3.8074 -8.50394,-8.504 0,-4.6966 3.80734,-8.5039 8.50394,-8.5039 4.69659,0 8.50394,3.8073 8.50393,8.5039 0,4.6966 -3.80734,8.504 -8.50393,8.504 z"
       id="path6100"
       inkscape:connector-curvature="0" />
    <path
       style="fill:none;stroke:#000000;stroke-width:1;stroke-miterlimit:4;stroke-opacity:1;stroke-dasharray:none"
       d="m 482.09568,-1819.3625 c -4.6966,0 -8.50394,-3.8074 -8.50394,-8.504 0,-4.6966 3.80734,-8.5039 8.50394,-8.5039 4.69659,0 8.50394,3.8073 8.50393,8.5039 0,4.6966 -3.80734,8.504 -8.50393,8.504 z"
       id="path6102"
       inkscape:connector-curvature="0" />
    <path
       style="fill:none;stroke:#000000;stroke-width:1;stroke-miterlimit:4;stroke-opacity:1;stroke-dasharray:none"
       d="m 482.09568,-1791.016 c -4.6966,0 -8.50394,-3.8074 -8.50394,-8.504 0,-4.6966 3.80734,-8.5039 8.50394,-8.5039 4.69659,0 8.50394,3.8073 8.50393,8.5039 0,4.6966 -3.80734,8.504 -8.50393,8.504 z"
       id="path6104"
       inkscape:connector-curvature="0" />
    <path
       style="fill:none;stroke:#000000;stroke-width:1;stroke-miterlimit:4;stroke-opacity:1;stroke-dasharray:none"
       d="m 482.09568,-1762.6696 c -4.6966,0 -8.50394,-3.8074 -8.50394,-8.504 0,-4.6966 3.80734,-8.5039 8.50394,-8.5039 4.69659,0 8.50394,3.8073 8.50393,8.5039 0,4.6966 -3.80734,8.504 -8.50393,8.504 z"
       id="path6106"
       inkscape:connector-curvature="0" />
    <path
       style="fill:none;stroke:#000000;stroke-width:1;stroke-miterlimit:4;stroke-opacity:1;stroke-dasharray:none"
       d="m 482.09568,-1734.3231 c -4.6966,0 -8.50394,-3.8074 -8.50394,-8.504 0,-4.6966 3.80734,-8.5039 8.50394,-8.5039 4.69659,0 8.50394,3.8073 8.50393,8.5039 0,4.6966 -3.80734,8.504 -8.50393,8.504 z"
       id="path6108"
       inkscape:connector-curvature="0" />
    <path
       style="fill:none;stroke:#000000;stroke-width:1;stroke-miterlimit:4;stroke-opacity:1;stroke-dasharray:none"
       d="m 482.09568,-1705.9766 c -4.6966,0 -8.50394,-3.8074 -8.50394,-8.504 0,-4.6966 3.80734,-8.5039 8.50394,-8.5039 4.69659,0 8.50394,3.8073 8.50393,8.5039 0,4.6966 -3.80734,8.504 -8.50393,8.504 z"
       id="path6110"
       inkscape:connector-curvature="0" />
    <path
       style="fill:none;stroke:#000000;stroke-width:1;stroke-miterlimit:4;stroke-opacity:1;stroke-dasharray:none"
       d="m 482.09568,-1677.6302 c -4.6966,0 -8.50394,-3.8074 -8.50394,-8.504 0,-4.6966 3.80734,-8.5039 8.50394,-8.5039 4.69659,0 8.50394,3.8073 8.50393,8.5039 0,4.6966 -3.80734,8.504 -8.50393,8.504 z"
       id="path6112"
       inkscape:connector-curvature="0" />
    <path
       style="fill:none;stroke:#000000;stroke-width:1;stroke-miterlimit:4;stroke-opacity:1;stroke-dasharray:none"
       d="m 887.45014,-1827.8665 c 0,4.6966 -3.80734,8.5039 -8.50394,8.5039 -4.69659,0 -8.50394,-3.8073 -8.50394,-8.5039 0,-4.6966 3.80735,-8.5039 8.50394,-8.5039 4.6966,0 8.50394,3.8073 8.50394,8.5039 z"
       id="path6262"
       inkscape:connector-curvature="0" />
    <path
       style="fill:none;stroke:#000000;stroke-width:1;stroke-miterlimit:4;stroke-opacity:1;stroke-dasharray:none"
       d="m 907.29268,-1819.3625 c -4.6966,0 -8.50394,-3.8074 -8.50394,-8.504 0,-4.6966 3.80734,-8.5039 8.50394,-8.5039 4.69659,0 8.50394,3.8073 8.50393,8.5039 0,4.6966 -3.80734,8.504 -8.50393,8.504 z"
       id="path6264"
       inkscape:connector-curvature="0" />
    <path
       style="fill:none;stroke:#000000;stroke-width:1;stroke-miterlimit:4;stroke-opacity:1;stroke-dasharray:none"
       d="m 859.10364,-1629.4413 c 0,4.6966 -3.80734,8.5039 -8.50394,8.5039 -4.69659,0 -8.50394,-3.8073 -8.50394,-8.5039 0,-4.6966 3.80735,-8.5039 8.50394,-8.5039 4.6966,0 8.50394,3.8073 8.50394,8.5039 z"
       id="path6269"
       inkscape:connector-curvature="0" />
    <path
       style="fill:none;stroke:#000000;stroke-width:1;stroke-miterlimit:4;stroke-opacity:1;stroke-dasharray:none"
       d="m 887.45014,-1629.4413 c 0,4.6966 -3.80734,8.5039 -8.50394,8.5039 -4.69659,0 -8.50394,-3.8073 -8.50394,-8.5039 0,-4.6966 3.80735,-8.5039 8.50394,-8.5039 4.6966,0 8.50394,3.8073 8.50394,8.5039 z"
       id="path6271"
       inkscape:connector-curvature="0" />
    <path
       style="fill:none;stroke:#00ff00;stroke-width:1;stroke-linecap:round;stroke-linejoin:round;stroke-miterlimit:4;stroke-opacity:1;stroke-dasharray:none;stroke-dashoffset:0"
       d="m 921.7966,-1623.4413 0,-210.4252 -8.50393,-8.5039 -437.197,0 -8.50393,8.5039 0,210.4252 8.50393,8.504 437.197,0 z"
       id="rect10175"
       inkscape:connector-curvature="0"
       sodipodi:nodetypes="ccccccccc" />
    <path
       style="fill:none;stroke:#000000;stroke-width:1;stroke-linecap:round;stroke-linejoin:round;stroke-miterlimit:4;stroke-opacity:1;stroke-dasharray:none;stroke-dashoffset:0"
       d="m 700.30632,-1788.7007 c 0,3.0947 -2.50877,5.6035 -5.60346,5.6035 -3.0947,0 -5.60345,-2.5088 -5.60345,-5.6035 0,-3.0947 2.50875,-5.6034 5.60345,-5.6034 3.09469,0 5.60346,2.5087 5.60346,5.6034 z"
       id="path8320-9"
       inkscape:connector-curvature="0" />
    <path
       style="fill:none;stroke:#000000;stroke-width:1;stroke-linecap:round;stroke-linejoin:round;stroke-miterlimit:4;stroke-opacity:1;stroke-dasharray:none;stroke-dashoffset:0"
       d="m 700.30632,-1668.2283 c 0,3.0947 -2.50877,5.6035 -5.60346,5.6035 -3.0947,0 -5.60345,-2.5088 -5.60345,-5.6035 0,-3.0947 2.50875,-5.6034 5.60345,-5.6034 3.09469,0 5.60346,2.5087 5.60346,5.6034 z"
       id="path11191"
       inkscape:connector-curvature="0" />
    <path
       style="font-size:medium;font-style:normal;font-variant:normal;font-weight:normal;font-stretch:normal;text-indent:0;text-align:start;text-decoration:none;line-height:normal;letter-spacing:normal;word-spacing:normal;text-transform:none;direction:ltr;block-progression:tb;writing-mode:lr-tb;text-anchor:start;baseline-shift:baseline;color:#000000;fill:none;stroke:#ff0000;stroke-width:1;stroke-miterlimit:4;stroke-opacity:1;stroke-dasharray:none;marker:none;visibility:visible;display:inline;overflow:visible;enable-background:accumulate;font-family:Sans;-inkscape-font-specification:Sans"
       d="m 502.99161,-1815.4705 -5.53125,5.5312 0,162.9375 5.53125,5.5313 383.40628,0 5.5625,-5.5313 0,-162.9375 -5.5625,-5.5312 z m 0,3 383.40628,0 2.5625,2.5312 0,162.9375 -2.5625,2.5313 -383.40628,0 -2.53125,-2.5313 0,-162.9375 z"
       id="rect3092"
       inkscape:connector-curvature="0"
       sodipodi:nodetypes="cccccccccccccccccc" />
    <path
       id="path4389-1-3"
       d="m 511.69236,-1703.0733 c -2.985,0 -5.4048,2.4198 -5.4048,5.4048 l 0,43.2381 c 0,2.985 2.4198,5.4048 5.4048,5.4048 l 21.619,0 c 2.985,0 5.4048,-2.4198 5.4048,-5.4048 l 0,-4.2741 0,-1.1306 0,-16.2143 c 0,-2.985 -2.4198,-5.4048 -5.4048,-5.4048 l -16.2142,0 0,-16.2143 c 0,-2.985 -2.4198,-5.4048 -5.4048,-5.4048 z m 0,1.3512 c 2.2387,0 4.0536,1.8149 4.0536,4.0536 0,2.2387 -1.8149,4.0536 -4.0536,4.0536 -2.2387,0 -4.0536,-1.8149 -4.0536,-4.0536 0,-2.2387 1.8149,-4.0536 4.0536,-4.0536 z m 0,10.8095 c 2.2387,0 4.0536,1.8149 4.0536,4.0536 0,2.2387 -1.8149,4.0536 -4.0536,4.0536 -2.2387,0 -4.0536,-1.8149 -4.0536,-4.0536 0,-2.2387 1.8149,-4.0536 4.0536,-4.0536 z m 0,10.8096 c 2.2387,0 4.0536,1.8148 4.0536,4.0536 0,2.2387 -1.8149,4.0536 -4.0536,4.0536 -2.2387,0 -4.0536,-1.8149 -4.0536,-4.0536 0,-2.2388 1.8149,-4.0536 4.0536,-4.0536 z m 10.8095,0 c 2.2388,0 4.0536,1.8148 4.0536,4.0536 0,2.2387 -1.8148,4.0536 -4.0536,4.0536 -2.2387,0 -4.0535,-1.8149 -4.0535,-4.0536 0,-2.2388 1.8148,-4.0536 4.0535,-4.0536 z m 10.8095,0 c 2.2388,0 4.0536,1.8148 4.0536,4.0536 0,2.2387 -1.8148,4.0536 -4.0536,4.0536 -2.2387,0 -4.0535,-1.8149 -4.0535,-4.0536 0,-2.2388 1.8148,-4.0536 4.0535,-4.0536 z m -16.2142,9.4583 10.8095,0 0,10.8096 -10.8095,0 z m -5.4048,1.3512 c 2.2387,0 4.0536,1.8149 4.0536,4.0536 0,2.2387 -1.8149,4.0536 -4.0536,4.0536 -2.2387,0 -4.0536,-1.8149 -4.0536,-4.0536 0,-2.2387 1.8149,-4.0536 4.0536,-4.0536 z m 21.619,0 c 2.2388,0 4.0536,1.8149 4.0536,4.0536 0,2.2387 -1.8148,4.0536 -4.0536,4.0536 -2.2387,0 -4.0535,-1.8149 -4.0535,-4.0536 0,-2.2387 1.8148,-4.0536 4.0535,-4.0536 z m -21.619,10.8096 c 2.2387,0 4.0536,1.8148 4.0536,4.0535 0,2.2387 -1.8149,4.0536 -4.0536,4.0536 -2.2387,0 -4.0536,-1.8149 -4.0536,-4.0536 0,-2.2387 1.8149,-4.0535 4.0536,-4.0535 z m 10.8095,0 c 2.2388,0 4.0536,1.8148 4.0536,4.0535 0,2.2387 -1.8148,4.0536 -4.0536,4.0536 -2.2387,0 -4.0535,-1.8149 -4.0535,-4.0536 0,-2.2387 1.8148,-4.0535 4.0535,-4.0535 z m 10.8095,0 c 2.2388,0 4.0536,1.8148 4.0536,4.0535 0,2.2387 -1.8148,4.0536 -4.0536,4.0536 -2.2387,0 -4.0535,-1.8149 -4.0535,-4.0536 0,-2.2387 1.8148,-4.0535 4.0535,-4.0535 z"
       style="fill:none;stroke:#ff0000;stroke-width:1;stroke-miterlimit:4;stroke-opacity:1;stroke-dasharray:none"
       inkscape:connector-curvature="0"
       sodipodi:nodetypes="ssssssccsscssssssssssssssssssssssssssscccccsssssssssssssssssssssssss" />
    <path
       inkscape:connector-curvature="0"
       id="path10481"
       style="font-size:20px;font-style:normal;font-variant:normal;font-weight:bold;font-stretch:normal;line-height:125%;letter-spacing:0px;word-spacing:0px;fill:none;stroke:#ff0000;stroke-opacity:1;font-family:Arial;-inkscape-font-specification:Arial"
       d="m 550.20312,-1651.262 -5.11718,-14.3164 3.13476,0 3.62305,10.5957 3.50586,-10.5957 3.06641,0 -5.12696,14.3164 -3.08594,0" />
    <path
       inkscape:connector-curvature="0"
       id="path10483"
       style="font-size:20px;font-style:normal;font-variant:normal;font-weight:bold;font-stretch:normal;line-height:125%;letter-spacing:0px;word-spacing:0px;fill:none;stroke:#ff0000;stroke-opacity:1;font-family:Arial;-inkscape-font-specification:Arial"
       d="m 562.07812,-1655.2268 c 0.0781,0.6185 0.30925,1.11 0.69336,1.4746 0.38411,0.3581 0.82682,0.5371 1.32813,0.5371 0.57291,0 1.05794,-0.2311 1.45508,-0.6933 0.39713,-0.4688 0.59569,-1.1719 0.5957,-2.1094 -10e-6,-0.8789 -0.19857,-1.5365 -0.5957,-1.9727 -0.39063,-0.4427 -0.9017,-0.664 -1.53321,-0.664 -0.78776,0 -1.49414,0.3483 -2.11914,1.0449 l -2.22656,-0.3223 1.40625,-7.4512 7.25586,0 0,2.5684 -5.17578,0 -0.42969,2.4316 c 0.61198,-0.3059 1.23698,-0.4589 1.875,-0.4589 1.21744,0 2.24934,0.4427 3.0957,1.3281 0.84635,0.8854 1.26953,2.0345 1.26954,3.4472 -10e-6,1.1784 -0.34181,2.2299 -1.02539,3.1543 -0.931,1.2631 -2.22332,1.8946 -3.87696,1.8946 -1.32162,0 -2.39909,-0.3548 -3.23242,-1.0645 -0.83333,-0.7096 -1.33138,-1.6634 -1.49414,-2.8613 z"
       sodipodi:nodetypes="ccscccscccccccssccsccc" />
  </g>
</svg>
