<?xml version="1.0" encoding="UTF-8" standalone="no"?>
<!-- Created with Inkscape (http://www.inkscape.org/) -->

<svg
   xmlns:dc="http://purl.org/dc/elements/1.1/"
   xmlns:cc="http://creativecommons.org/ns#"
   xmlns:rdf="http://www.w3.org/1999/02/22-rdf-syntax-ns#"
   xmlns:svg="http://www.w3.org/2000/svg"
   xmlns="http://www.w3.org/2000/svg"
   xmlns:sodipodi="http://sodipodi.sourceforge.net/DTD/sodipodi-0.dtd"
   xmlns:inkscape="http://www.inkscape.org/namespaces/inkscape"
   width="200.08658"
   height="171.74016"
   id="svg4750"
   version="1.1"
   inkscape:version="0.48.3.1 r9886"
   sodipodi:docname="keytar_v5.svg"
   inkscape:export-filename="/home/matthew/repo/wnl_svn/bricktronics/laser_cut_mount/proto2.png"
   inkscape:export-xdpi="89.972054"
   inkscape:export-ydpi="89.972054">
  <sodipodi:namedview
     id="base"
     pagecolor="#ffffff"
     bordercolor="#666666"
     borderopacity="1.0"
     inkscape:pageopacity="1"
     inkscape:pageshadow="2"
     inkscape:zoom="2.6585953"
     inkscape:cx="212.37508"
     inkscape:cy="119.94299"
     inkscape:document-units="px"
     inkscape:current-layer="layer1"
     showgrid="false"
     inkscape:window-width="1535"
     inkscape:window-height="876"
     inkscape:window-x="65"
     inkscape:window-y="24"
     inkscape:window-maximized="1"
     fit-margin-top="0"
     fit-margin-left="0"
     fit-margin-right="0"
     fit-margin-bottom="0"
     inkscape:snap-global="true"
     inkscape:snap-smooth-nodes="true"
     inkscape:object-nodes="true"
     inkscape:snap-bbox="false"
     inkscape:bbox-paths="false"
     inkscape:bbox-nodes="true"
     units="in"
     showguides="true"
     inkscape:guide-bbox="true"
     inkscape:snap-page="false"
     inkscape:snap-nodes="true" />
  <defs
     id="defs4752">
    <marker
       style="overflow:visible"
       id="Arrow1Lend"
       refX="0"
       refY="0"
       orient="auto"
       inkscape:stockid="Arrow1Lend">
      <path
         inkscape:connector-curvature="0"
         transform="matrix(-0.8,0,0,-0.8,-10,0)"
         style="fill-rule:evenodd;stroke:#000000;stroke-width:1pt;marker-start:none"
         d="M 0,0 5,-5 -12.5,0 5,5 0,0 z"
         id="path4521" />
    </marker>
  </defs>
  <metadata
     id="metadata4755">
    <rdf:RDF>
      <cc:Work
         rdf:about="">
        <dc:format>image/svg+xml</dc:format>
        <dc:type
           rdf:resource="http://purl.org/dc/dcmitype/StillImage" />
        <dc:title />
      </cc:Work>
    </rdf:RDF>
  </metadata>
  <g
     inkscape:label="Layer 1"
     inkscape:groupmode="layer"
     id="layer1"
     transform="translate(-465.44814,927.59671)">
    <path
       transform="matrix(1.0089036,0,0,1.0089036,222.78093,-984.21033)"
       style="fill:none;stroke:#000000;stroke-width:0.991175;stroke-linecap:butt;stroke-linejoin:miter;stroke-miterlimit:4;stroke-opacity:1"
       d="m 371.67326,140.79646 c 0,17.80484 -14.43367,32.23851 -32.23851,32.23851 -17.80483,0 -32.23851,-14.43367 -32.23851,-32.23851 0,-17.80483 14.43368,-32.23851 32.23851,-32.23851 17.80484,0 32.23851,14.43368 32.23851,32.23851 z"
       id="path4256"
       inkscape:connector-curvature="0" />
    <path
       transform="matrix(0,-0.25330875,0.25330875,0,430.27759,-731.77858)"
       style="fill:none;stroke:#000000;stroke-width:3.94775152;stroke-miterlimit:4;stroke-opacity:1"
       d="m 187.85715,198.07646 c 0,18.54099 -15.03044,33.57143 -33.57143,33.57143 -18.54099,0 -33.57143,-15.03044 -33.57143,-33.57143 0,-18.54099 15.03044,-33.57143 33.57143,-33.57143 18.54099,0 33.57143,15.03044 33.57143,33.57143 z"
       id="path7928"
       inkscape:connector-curvature="0" />
    <path
       transform="matrix(0,-0.25330875,0.25330875,0,430.27759,-760.12504)"
       style="fill:none;stroke:#000000;stroke-width:3.94775152;stroke-miterlimit:4;stroke-opacity:1"
       d="m 187.85715,198.07646 c 0,18.54099 -15.03044,33.57143 -33.57143,33.57143 -18.54099,0 -33.57143,-15.03044 -33.57143,-33.57143 0,-18.54099 15.03044,-33.57143 33.57143,-33.57143 18.54099,0 33.57143,15.03044 33.57143,33.57143 z"
       id="path7930"
       inkscape:connector-curvature="0" />
    <path
       transform="matrix(0,-0.25330875,0.25330875,0,430.27759,-788.47149)"
       style="fill:none;stroke:#000000;stroke-width:3.94775152;stroke-miterlimit:4;stroke-opacity:1"
       d="m 187.85715,198.07646 c 0,18.54099 -15.03044,33.57143 -33.57143,33.57143 -18.54099,0 -33.57143,-15.03044 -33.57143,-33.57143 0,-18.54099 15.03044,-33.57143 33.57143,-33.57143 18.54099,0 33.57143,15.03044 33.57143,33.57143 z"
       id="path7932"
       inkscape:connector-curvature="0" />
    <path
       transform="matrix(0,-0.25330875,0.25330875,0,430.27759,-816.81795)"
       style="fill:none;stroke:#000000;stroke-width:3.94775152;stroke-miterlimit:4;stroke-opacity:1"
       d="m 187.85715,198.07646 c 0,18.54099 -15.03044,33.57143 -33.57143,33.57143 -18.54099,0 -33.57143,-15.03044 -33.57143,-33.57143 0,-18.54099 15.03044,-33.57143 33.57143,-33.57143 18.54099,0 33.57143,15.03044 33.57143,33.57143 z"
       id="path7934"
       inkscape:connector-curvature="0" />
    <path
       transform="matrix(0,-0.25330875,0.25330875,0,430.27759,-845.1644)"
       style="fill:none;stroke:#000000;stroke-width:3.94775152;stroke-miterlimit:4;stroke-opacity:1"
       d="m 187.85715,198.07646 c 0,18.54099 -15.03044,33.57143 -33.57143,33.57143 -18.54099,0 -33.57143,-15.03044 -33.57143,-33.57143 0,-18.54099 15.03044,-33.57143 33.57143,-33.57143 18.54099,0 33.57143,15.03044 33.57143,33.57143 z"
       id="path7936"
       inkscape:connector-curvature="0" />
    <path
       transform="matrix(0,-0.25330875,0.25330875,0,430.27759,-873.51086)"
       style="fill:none;stroke:#000000;stroke-width:3.94775152;stroke-miterlimit:4;stroke-opacity:1"
       d="m 187.85715,198.07646 c 0,18.54099 -15.03044,33.57143 -33.57143,33.57143 -18.54099,0 -33.57143,-15.03044 -33.57143,-33.57143 0,-18.54099 15.03044,-33.57143 33.57143,-33.57143 18.54099,0 33.57143,15.03044 33.57143,33.57143 z"
       id="path7938"
       inkscape:connector-curvature="0" />
    <path
       transform="matrix(-0.25330875,1.0135064e-8,-1.0135064e-8,-0.25330875,689.61275,-862.41828)"
       style="fill:none;stroke:#000000;stroke-width:3.94775152;stroke-miterlimit:4;stroke-opacity:1"
       d="m 187.85715,198.07646 c 0,18.54099 -15.03044,33.57143 -33.57143,33.57143 -18.54099,0 -33.57143,-15.03044 -33.57143,-33.57143 0,-18.54099 15.03044,-33.57143 33.57143,-33.57143 18.54099,0 33.57143,15.03044 33.57143,33.57143 z"
       id="path7982"
       inkscape:connector-curvature="0" />
    <path
       transform="matrix(-0.25330875,1.0135064e-8,-1.0135064e-8,-0.25330875,661.26631,-862.41828)"
       style="fill:none;stroke:#000000;stroke-width:3.94775152;stroke-miterlimit:4;stroke-opacity:1"
       d="m 187.85715,198.07646 c 0,18.54099 -15.03044,33.57143 -33.57143,33.57143 -18.54099,0 -33.57143,-15.03044 -33.57143,-33.57143 0,-18.54099 15.03044,-33.57143 33.57143,-33.57143 18.54099,0 33.57143,15.03044 33.57143,33.57143 z"
       id="path7984"
       inkscape:connector-curvature="0" />
    <path
       transform="matrix(-0.25330875,1.0135064e-8,-1.0135064e-8,-0.25330875,632.91983,-862.41828)"
       style="fill:none;stroke:#000000;stroke-width:3.94775152;stroke-miterlimit:4;stroke-opacity:1"
       d="m 187.85715,198.07646 c 0,18.54099 -15.03044,33.57143 -33.57143,33.57143 -18.54099,0 -33.57143,-15.03044 -33.57143,-33.57143 0,-18.54099 15.03044,-33.57143 33.57143,-33.57143 18.54099,0 33.57143,15.03044 33.57143,33.57143 z"
       id="path7986"
       inkscape:connector-curvature="0" />
    <path
       transform="matrix(-0.25330875,1.0135064e-8,-1.0135064e-8,-0.25330875,604.57339,-862.41828)"
       style="fill:none;stroke:#000000;stroke-width:3.94775152;stroke-miterlimit:4;stroke-opacity:1"
       d="m 187.85715,198.07646 c 0,18.54099 -15.03044,33.57143 -33.57143,33.57143 -18.54099,0 -33.57143,-15.03044 -33.57143,-33.57143 0,-18.54099 15.03044,-33.57143 33.57143,-33.57143 18.54099,0 33.57143,15.03044 33.57143,33.57143 z"
       id="path7988"
       inkscape:connector-curvature="0" />
    <path
       transform="matrix(-0.25330875,1.0135064e-8,-1.0135064e-8,-0.25330875,576.22695,-862.41828)"
       style="fill:none;stroke:#000000;stroke-width:3.94775152;stroke-miterlimit:4;stroke-opacity:1"
       d="m 187.85715,198.07646 c 0,18.54099 -15.03044,33.57143 -33.57143,33.57143 -18.54099,0 -33.57143,-15.03044 -33.57143,-33.57143 0,-18.54099 15.03044,-33.57143 33.57143,-33.57143 18.54099,0 33.57143,15.03044 33.57143,33.57143 z"
       id="path7990"
       inkscape:connector-curvature="0" />
    <path
       transform="matrix(-0.25330875,1.0135064e-8,-1.0135064e-8,-0.25330875,547.88049,-862.41828)"
       style="fill:none;stroke:#000000;stroke-width:3.94775152;stroke-miterlimit:4;stroke-opacity:1"
       d="m 187.85715,198.07646 c 0,18.54099 -15.03044,33.57143 -33.57143,33.57143 -18.54099,0 -33.57143,-15.03044 -33.57143,-33.57143 0,-18.54099 15.03044,-33.57143 33.57143,-33.57143 18.54099,0 33.57143,15.03044 33.57143,33.57143 z"
       id="path7992"
       inkscape:connector-curvature="0" />
    <path
       transform="matrix(0,0.25330875,-0.25330875,0,700.70533,-923.32824)"
       style="fill:none;stroke:#000000;stroke-width:3.94775152;stroke-miterlimit:4;stroke-opacity:1"
       d="m 187.85715,198.07646 c 0,18.54099 -15.03044,33.57143 -33.57143,33.57143 -18.54099,0 -33.57143,-15.03044 -33.57143,-33.57143 0,-18.54099 15.03044,-33.57143 33.57143,-33.57143 18.54099,0 33.57143,15.03044 33.57143,33.57143 z"
       id="path8700"
       inkscape:connector-curvature="0" />
    <path
       transform="matrix(0,0.25330875,-0.25330875,0,700.70533,-894.98179)"
       style="fill:none;stroke:#000000;stroke-width:3.94775152;stroke-miterlimit:4;stroke-opacity:1"
       d="m 187.85715,198.07646 c 0,18.54099 -15.03044,33.57143 -33.57143,33.57143 -18.54099,0 -33.57143,-15.03044 -33.57143,-33.57143 0,-18.54099 15.03044,-33.57143 33.57143,-33.57143 18.54099,0 33.57143,15.03044 33.57143,33.57143 z"
       id="path8702"
       inkscape:connector-curvature="0" />
    <path
       transform="matrix(0,0.25330875,-0.25330875,0,700.70533,-866.63533)"
       style="fill:none;stroke:#000000;stroke-width:3.94775152;stroke-miterlimit:4;stroke-opacity:1"
       d="m 187.85715,198.07646 c 0,18.54099 -15.03044,33.57143 -33.57143,33.57143 -18.54099,0 -33.57143,-15.03044 -33.57143,-33.57143 0,-18.54099 15.03044,-33.57143 33.57143,-33.57143 18.54099,0 33.57143,15.03044 33.57143,33.57143 z"
       id="path8704"
       inkscape:connector-curvature="0" />
    <path
       transform="matrix(0,0.25330875,-0.25330875,0,700.70533,-838.28888)"
       style="fill:none;stroke:#000000;stroke-width:3.94775152;stroke-miterlimit:4;stroke-opacity:1"
       d="m 187.85715,198.07646 c 0,18.54099 -15.03044,33.57143 -33.57143,33.57143 -18.54099,0 -33.57143,-15.03044 -33.57143,-33.57143 0,-18.54099 15.03044,-33.57143 33.57143,-33.57143 18.54099,0 33.57143,15.03044 33.57143,33.57143 z"
       id="path8706"
       inkscape:connector-curvature="0" />
    <path
       transform="matrix(0,0.25330875,-0.25330875,0,700.70533,-809.94242)"
       style="fill:none;stroke:#000000;stroke-width:3.94775152;stroke-miterlimit:4;stroke-opacity:1"
       d="m 187.85715,198.07646 c 0,18.54099 -15.03044,33.57143 -33.57143,33.57143 -18.54099,0 -33.57143,-15.03044 -33.57143,-33.57143 0,-18.54099 15.03044,-33.57143 33.57143,-33.57143 18.54099,0 33.57143,15.03044 33.57143,33.57143 z"
       id="path8708"
       inkscape:connector-curvature="0" />
    <path
       transform="matrix(0.25330875,-1.0135064e-8,1.0135064e-8,0.25330875,469.71661,-821.035)"
       style="fill:none;stroke:#000000;stroke-width:3.94775152;stroke-miterlimit:4;stroke-opacity:1"
       d="m 187.85715,198.07646 c 0,18.54099 -15.03044,33.57143 -33.57143,33.57143 -18.54099,0 -33.57143,-15.03044 -33.57143,-33.57143 0,-18.54099 15.03044,-33.57143 33.57143,-33.57143 18.54099,0 33.57143,15.03044 33.57143,33.57143 z"
       id="path8712"
       inkscape:connector-curvature="0" />
    <path
       transform="matrix(0.25330875,-1.0135064e-8,1.0135064e-8,0.25330875,498.06309,-821.035)"
       style="fill:none;stroke:#000000;stroke-width:3.94775152;stroke-miterlimit:4;stroke-opacity:1"
       d="m 187.85715,198.07646 c 0,18.54099 -15.03044,33.57143 -33.57143,33.57143 -18.54099,0 -33.57143,-15.03044 -33.57143,-33.57143 0,-18.54099 15.03044,-33.57143 33.57143,-33.57143 18.54099,0 33.57143,15.03044 33.57143,33.57143 z"
       id="path8714"
       inkscape:connector-curvature="0" />
    <path
       transform="matrix(0.25330875,-1.0135064e-8,1.0135064e-8,0.25330875,526.40953,-821.035)"
       style="fill:none;stroke:#000000;stroke-width:3.94775152;stroke-miterlimit:4;stroke-opacity:1"
       d="m 187.85715,198.07646 c 0,18.54099 -15.03044,33.57143 -33.57143,33.57143 -18.54099,0 -33.57143,-15.03044 -33.57143,-33.57143 0,-18.54099 15.03044,-33.57143 33.57143,-33.57143 18.54099,0 33.57143,15.03044 33.57143,33.57143 z"
       id="path8716"
       inkscape:connector-curvature="0" />
    <path
       transform="matrix(0.25330875,-1.0135064e-8,1.0135064e-8,0.25330875,554.75597,-821.035)"
       style="fill:none;stroke:#000000;stroke-width:3.94775152;stroke-miterlimit:4;stroke-opacity:1"
       d="m 187.85715,198.07646 c 0,18.54099 -15.03044,33.57143 -33.57143,33.57143 -18.54099,0 -33.57143,-15.03044 -33.57143,-33.57143 0,-18.54099 15.03044,-33.57143 33.57143,-33.57143 18.54099,0 33.57143,15.03044 33.57143,33.57143 z"
       id="path8718"
       inkscape:connector-curvature="0" />
    <path
       transform="matrix(0.25330875,-1.0135064e-8,1.0135064e-8,0.25330875,583.10243,-821.035)"
       style="fill:none;stroke:#000000;stroke-width:3.94775152;stroke-miterlimit:4;stroke-opacity:1"
       d="m 187.85715,198.07646 c 0,18.54099 -15.03044,33.57143 -33.57143,33.57143 -18.54099,0 -33.57143,-15.03044 -33.57143,-33.57143 0,-18.54099 15.03044,-33.57143 33.57143,-33.57143 18.54099,0 33.57143,15.03044 33.57143,33.57143 z"
       id="path8720"
       inkscape:connector-curvature="0" />
    <path
       inkscape:connector-curvature="0"
       id="rect8783"
       d="m 474.45207,-927.09671 182.07871,0 8.50394,8.50394 0,153.73229 -8.50394,8.50393 -182.07871,0 -8.50393,-8.50393 0,-153.73229 z"
       style="fill:none;stroke:#00ff00;stroke-width:1;stroke-linecap:round;stroke-linejoin:round;stroke-miterlimit:4;stroke-opacity:1;stroke-dasharray:none;stroke-dashoffset:0"
       sodipodi:nodetypes="ccccccccc" />
    <path
       sodipodi:nodetypes="ssssssccsscssssssssssssssssssssssssssscccccsssssssssssssssssssssssss"
       inkscape:connector-curvature="0"
       style="fill:none;stroke:#ff0000;stroke-width:1;stroke-miterlimit:4;stroke-opacity:1;stroke-dasharray:none"
       d="m 500.3277,-869.18405 c -2.98499,0 -5.40478,2.41981 -5.40478,5.40476 l 0,43.23808 c 0,2.985 2.41979,5.4048 5.40478,5.4048 l 21.61903,0 c 2.98497,0 5.40477,-2.4198 5.40477,-5.4048 l 0,-4.2741 0,-1.1306 0,-16.2143 c 0,-2.985 -2.4198,-5.40479 -5.40477,-5.40479 l -16.21428,0 0,-16.21429 c 0,-2.98495 -2.4198,-5.40476 -5.40475,-5.40476 z m 0,1.3512 c 2.23871,0 4.05356,1.81483 4.05356,4.05356 0,2.23873 -1.81485,4.05358 -4.05356,4.05358 -2.23874,0 -4.05359,-1.81485 -4.05359,-4.05358 0,-2.23873 1.81485,-4.05356 4.05359,-4.05356 z m 0,10.80951 c 2.23871,0 4.05356,1.81485 4.05356,4.05358 0,2.23872 -1.81485,4.05357 -4.05356,4.05357 -2.23874,0 -4.05359,-1.81485 -4.05359,-4.05357 0,-2.23873 1.81485,-4.05358 4.05359,-4.05358 z m 0,10.80953 c 2.23871,0 4.05356,1.8148 4.05356,4.0536 0,2.2387 -1.81485,4.0536 -4.05356,4.0536 -2.23874,0 -4.05359,-1.8149 -4.05359,-4.0536 0,-2.2388 1.81485,-4.0536 4.05359,-4.0536 z m 10.80951,0 c 2.23873,0 4.05356,1.8148 4.05356,4.0536 0,2.2387 -1.81483,4.0536 -4.05356,4.0536 -2.23873,0 -4.05356,-1.8149 -4.05356,-4.0536 0,-2.2388 1.81483,-4.0536 4.05356,-4.0536 z m 10.80952,0 c 2.23873,0 4.05358,1.8148 4.05358,4.0536 0,2.2387 -1.81485,4.0536 -4.05358,4.0536 -2.23872,0 -4.05357,-1.8149 -4.05357,-4.0536 0,-2.2388 1.81485,-4.0536 4.05357,-4.0536 z m -16.21428,9.4583 10.80952,0 0,10.8096 -10.80952,0 z m -5.40475,1.3512 c 2.23871,0 4.05356,1.8149 4.05356,4.0536 0,2.2387 -1.81485,4.0536 -4.05356,4.0536 -2.23874,0 -4.05359,-1.8149 -4.05359,-4.0536 0,-2.2387 1.81485,-4.0536 4.05359,-4.0536 z m 21.61903,0 c 2.23873,0 4.05358,1.8149 4.05358,4.0536 0,2.2387 -1.81485,4.0536 -4.05358,4.0536 -2.23872,0 -4.05357,-1.8149 -4.05357,-4.0536 0,-2.2387 1.81485,-4.0536 4.05357,-4.0536 z m -21.61903,10.8096 c 2.23871,0 4.05356,1.8148 4.05356,4.0535 0,2.2387 -1.81485,4.0536 -4.05356,4.0536 -2.23874,0 -4.05359,-1.8149 -4.05359,-4.0536 0,-2.2387 1.81485,-4.0535 4.05359,-4.0535 z m 10.80951,0 c 2.23873,0 4.05356,1.8148 4.05356,4.0535 0,2.2387 -1.81483,4.0536 -4.05356,4.0536 -2.23873,0 -4.05356,-1.8149 -4.05356,-4.0536 0,-2.2387 1.81483,-4.0535 4.05356,-4.0535 z m 10.80952,0 c 2.23873,0 4.05358,1.8148 4.05358,4.0535 0,2.2387 -1.81485,4.0536 -4.05358,4.0536 -2.23872,0 -4.05357,-1.8149 -4.05357,-4.0536 0,-2.2387 1.81485,-4.0535 4.05357,-4.0535 z"
       id="path4389-1" />
    <path
       inkscape:connector-curvature="0"
       id="path10481"
       style="font-size:20px;font-style:normal;font-variant:normal;font-weight:bold;font-stretch:normal;line-height:125%;letter-spacing:0px;word-spacing:0px;fill:none;stroke:#ff0000;stroke-opacity:1;font-family:Arial;-inkscape-font-specification:Arial"
       d="m 606.84482,-835.12417 -5.11718,-14.3164 3.13476,0 3.62305,10.5957 3.50586,-10.5957 3.06641,0 -5.12696,14.3164 -3.08594,0" />
    <path
       inkscape:connector-curvature="0"
       id="path10483"
       style="font-size:20px;font-style:normal;font-variant:normal;font-weight:bold;font-stretch:normal;line-height:125%;letter-spacing:0px;word-spacing:0px;fill:none;stroke:#ff0000;stroke-opacity:1;font-family:Arial;-inkscape-font-specification:Arial"
       d="m 618.71982,-839.08897 c 0.0781,0.6185 0.30925,1.11 0.69336,1.4746 0.38411,0.3581 0.82682,0.5371 1.32813,0.5371 0.57291,0 1.05794,-0.2311 1.45508,-0.6933 0.39713,-0.4688 0.59569,-1.1719 0.5957,-2.1094 -10e-6,-0.8789 -0.19857,-1.5365 -0.5957,-1.9727 -0.39063,-0.4427 -0.9017,-0.664 -1.53321,-0.664 -0.78776,0 -1.49414,0.3483 -2.11914,1.0449 l -2.22656,-0.32231 1.40625,-7.45119 7.25586,0 0,2.5684 -5.17578,0 -0.42969,2.4316 c 0.61198,-0.3059 1.23698,-0.4589 1.875,-0.4589 1.21744,0 2.24934,0.44269 3.0957,1.32809 0.84635,0.88541 1.26953,2.0345 1.26954,3.4472 -1e-5,1.1784 -0.34181,2.2299 -1.02539,3.1543 -0.931,1.2631 -2.22332,1.8946 -3.87696,1.8946 -1.32162,0 -2.39909,-0.3548 -3.23242,-1.06449 -0.83333,-0.70961 -1.33138,-1.66341 -1.49414,-2.86131 z"
       sodipodi:nodetypes="ccscccscccccccssccsccc" />
  </g>
</svg>
